<svg width="20" height="20" viewBox="0 0 20 20" fill="none" xmlns="http://www.w3.org/2000/svg">
<mask id="mask0_278_282" style="mask-type:alpha" maskUnits="userSpaceOnUse" x="0" y="0" width="20" height="20">
<rect width="20" height="20" fill="#D9D9D9"/>
</mask>
<g mask="url(#mask0_278_282)">
<path d="M4.16667 17.4997C3.70833 17.4997 3.31597 17.3365 2.98958 17.0101C2.66319 16.6837 2.5 16.2913 2.5 15.833V4.16634C2.5 3.70801 2.66319 3.31565 2.98958 2.98926C3.31597 2.66287 3.70833 2.49967 4.16667 2.49967H7.66667C7.86111 1.99967 8.16667 1.5969 8.58333 1.29134C9 0.985786 9.47222 0.833008 10 0.833008C10.5278 0.833008 11 0.985786 11.4167 1.29134C11.8333 1.5969 12.1389 1.99967 12.3333 2.49967H15.8333C16.2917 2.49967 16.684 2.66287 17.0104 2.98926C17.3368 3.31565 17.5 3.70801 17.5 4.16634V15.833C17.5 16.2913 17.3368 16.6837 17.0104 17.0101C16.684 17.3365 16.2917 17.4997 15.8333 17.4997H4.16667ZM10.4479 3.36426C10.566 3.2462 10.625 3.0969 10.625 2.91634C10.625 2.73579 10.566 2.58648 10.4479 2.46842C10.3299 2.35037 10.1806 2.29134 10 2.29134C9.81944 2.29134 9.67014 2.35037 9.55208 2.46842C9.43403 2.58648 9.375 2.73579 9.375 2.91634C9.375 3.0969 9.43403 3.2462 9.55208 3.36426C9.67014 3.48231 9.81944 3.54134 10 3.54134C10.1806 3.54134 10.3299 3.48231 10.4479 3.36426ZM12.0625 9.97884C12.6319 9.4094 12.9167 8.7219 12.9167 7.91634C12.9167 7.11079 12.6319 6.42329 12.0625 5.85384C11.4931 5.2844 10.8056 4.99967 10 4.99967C9.19444 4.99967 8.50694 5.2844 7.9375 5.85384C7.36806 6.42329 7.08333 7.11079 7.08333 7.91634C7.08333 8.7219 7.36806 9.4094 7.9375 9.97884C8.50694 10.5483 9.19444 10.833 10 10.833C10.8056 10.833 11.4931 10.5483 12.0625 9.97884ZM4.16667 15.833H15.8333V14.8747C15.0833 14.1386 14.2118 13.5587 13.2187 13.1351C12.2257 12.7115 11.1528 12.4997 10 12.4997C8.84722 12.4997 7.77431 12.7115 6.78125 13.1351C5.78819 13.5587 4.91667 14.1386 4.16667 14.8747V15.833Z" fill="#456116"/>
</g>
</svg>
