<svg width="20" height="20" viewBox="0 0 20 20" fill="none" xmlns="http://www.w3.org/2000/svg">
<mask id="mask0_278_278" style="mask-type:alpha" maskUnits="userSpaceOnUse" x="0" y="0" width="20" height="20">
<rect width="20" height="20" fill="#D9D9D9"/>
</mask>
<g mask="url(#mask0_278_278)">
<path d="M7.64258 9.01953C6.9898 8.36675 6.66341 7.58203 6.66341 6.66536C6.66341 5.7487 6.9898 4.96398 7.64258 4.3112C8.29536 3.65842 9.08008 3.33203 9.99674 3.33203C10.9134 3.33203 11.6981 3.65842 12.3509 4.3112C13.0037 4.96398 13.3301 5.7487 13.3301 6.66536C13.3301 7.58203 13.0037 8.36675 12.3509 9.01953C11.6981 9.67231 10.9134 9.9987 9.99674 9.9987C9.08008 9.9987 8.29536 9.67231 7.64258 9.01953ZM3.33008 14.9987V14.332C3.33008 13.8598 3.45161 13.4258 3.69466 13.0299C3.93772 12.6341 4.26063 12.332 4.66341 12.1237C5.52452 11.6931 6.39952 11.3702 7.28841 11.1549C8.1773 10.9397 9.08008 10.832 9.99674 10.832C10.9134 10.832 11.8162 10.9397 12.7051 11.1549C13.594 11.3702 14.469 11.6931 15.3301 12.1237C15.7329 12.332 16.0558 12.6341 16.2988 13.0299C16.5419 13.4258 16.6634 13.8598 16.6634 14.332V14.9987C16.6634 15.457 16.5002 15.8494 16.1738 16.1758C15.8474 16.5022 15.4551 16.6654 14.9967 16.6654H4.99674C4.53841 16.6654 4.14605 16.5022 3.81966 16.1758C3.49327 15.8494 3.33008 15.457 3.33008 14.9987Z" fill="#456116"/>
</g>
</svg>
